HIERARCHY
ROOT simHips
{
  OFFSET 16.5057 99.3259 -0.292261
  CHANNELS 6 Xposition Yposition Zposition Zrotation Xrotation Yrotation
  JOINT simSpine
  {
    OFFSET -0.000355721 21.3001 -0.016921
    CHANNELS 3 Zrotation Xrotation Yrotation
    JOINT simLeftArm
    {
      OFFSET 13.5181 21.3012 0
      CHANNELS 3 Zrotation Xrotation Yrotation
      JOINT simLeftForeArm
      {
        OFFSET 24.5783 0 0
        CHANNELS 3 Zrotation Xrotation Yrotation
        JOINT simLeftHand
        {
          OFFSET 24.5783 0 0
          CHANNELS 3 Zrotation Xrotation Yrotation
          End Site
          {
            OFFSET 7.32568 1.52588e-005 0.0169305
          }
        }
      }
    }
    JOINT simHead
    {
      OFFSET 0 27.4458 -0.00489235
      CHANNELS 3 Zrotation Xrotation Yrotation
      End Site
      {
        OFFSET 0 0 0
      }
    }
    JOINT simRightArm
    {
      OFFSET -13.5174 21.3012 0
      CHANNELS 3 Zrotation Xrotation Yrotation
      JOINT simRightForeArm
      {
        OFFSET -24.5783 0 0
        CHANNELS 3 Zrotation Xrotation Yrotation
        JOINT simRightHand
        {
          OFFSET -24.5783 0 0
          CHANNELS 3 Zrotation Xrotation Yrotation
          End Site
          {
            OFFSET -7.32568 1.52588e-005 0.0169305
          }
        }
      }
    }
  }
  JOINT simRightUpLeg
  {
    OFFSET -8.44614 -9.41038 0.835684
    CHANNELS 3 Zrotation Xrotation Yrotation
    JOINT simRightLeg
    {
      OFFSET 0 -40.9639 0
      CHANNELS 3 Zrotation Xrotation Yrotation
      JOINT simRightFoot
      {
        OFFSET 0 -40.9639 0
        CHANNELS 3 Zrotation Xrotation Yrotation
        End Site
        {
          OFFSET 0.50614 -9.67405 14.6709
        }
      }
    }
  }
  JOINT simLeftUpLeg
  {
    OFFSET 8.44614 -9.41038 0.835684
    CHANNELS 3 Zrotation Xrotation Yrotation
    JOINT simLeftLeg
    {
      OFFSET 0 -40.9639 0
      CHANNELS 3 Zrotation Xrotation Yrotation
      JOINT simLeftFoot
      {
        OFFSET 0 -40.9639 0
        CHANNELS 3 Zrotation Xrotation Yrotation
        End Site
        {
          OFFSET -0.50614 -9.67405 14.6709
        }
      }
    }
  }
}
MOTION
Frames:	22
Frame Time:	0.0333333
-43.1725 95.8118 -29.7599 -1.36151 -2.97182 -47.9774 15.7509 13.3942 -4.70058 -60.3424 36.6789 -31.6576 -11.8969 -3.59699 -93.7364 3.18715 0.859639 -28.8733 -9.96723 -0.914598 -4.46897 44.684 20.4917 -8.20529 0.379925 -7.74889 65.2198 -11.9022 2.60229 34.0123 -2.86426 -29.8348 0.0919666 1.50978 25.4696 4.94627 11.8464 1.7225 -2.13506 -14.0335 3.7671 16.4756 -9.07185 34.4748 9.15098 15.6118 5.09029 -20.2591 
-45.1478 96.1449 -24.0215 -1.73354 -3.52579 -52.0274 17.2689 12.9018 -4.78148 -58.2829 37.9513 -31.957 -13.6281 -5.22251 -91.3119 4.79368 3.03985 -28.2399 -10.6531 0.50686 -2.91638 43.032 18.6741 -8.2963 0.262868 -7.37651 63.3782 -10.2619 2.25663 31.8793 -0.577108 -24.9119 -4.97202 3.62216 13.7191 5.43998 16.1653 5.29151 2.06312 -12.0071 3.71409 18.4485 -12.8967 39.1004 11.2366 19.3639 9.85003 -32.0862 
-46.8348 95.5421 -18.1804 -2.65377 -4.60697 -55.6045 16.7375 13.4642 -4.23117 -54.942 37.8949 -31.8468 -14.7851 -6.56348 -86.8405 6.85684 5.52226 -28.232 -9.89916 0.738295 -2.14735 43.2405 17.6584 -6.35867 -0.00728759 -6.57392 59.7526 -8.39099 1.72479 29.7803 0.511185 -23.1452 -9.41315 5.67872 14.6645 3.57901 14.9297 11.0945 1.63781 -10.4178 0.696871 19.9487 -14.8105 49.7404 14.1567 26.7561 7.70159 -43.6551 
-48.4219 93.94 -12.629 -4.84945 -5.62703 -59.3378 15.6592 16.2428 -3.64774 -50.5782 35.501 -31.6483 -14.8119 -6.80678 -80.6886 9.01027 7.99678 -28.5096 -8.69575 -0.729322 -1.91421 44.0952 17.5094 -1.54251 0.684864 -5.68222 54.8347 -5.50044 0.676213 27.5933 1.63058 -23.1044 -11.7476 6.67369 23.8533 0.644794 -2.93716 7.02986 5.96632 -6.63035 -2.4223 20.5435 -21.4093 62.425 20.4613 27.9842 2.12616 -45.3802 
-49.6424 92.0115 -7.63381 -7.25037 -6.10777 -62.847 14.6011 20.5637 -2.83597 -46.0541 30.0386 -32.5519 -14.34 -5.4304 -72.3078 8.44041 8.72449 -26.6703 -7.52026 -2.60621 -2.42786 44.5216 18.0357 6.45516 0.924315 -4.38317 48.294 -3.99422 0.100527 26.3865 3.00883 -24.6485 -11.024 6.1497 34.7859 -2.62573 -14.3046 0.0933073 3.00443 -0.842682 -6.17799 20.4493 -38.9561 73.4743 37.652 29.0727 -0.86506 -41.5683 
-50.302 90.7873 -3.01004 -8.38531 -5.96116 -65.4367 12.9666 25.5716 -2.85531 -43.205 22.201 -33.7706 -13.105 -2.86737 -62.251 7.11336 8.33853 -24.3478 -5.443 -4.98346 -2.63951 43.6345 18.6779 19.5212 0.833493 -1.73166 37.6491 -4.70589 0.658006 24.5141 6.10205 -28.5343 -4.05596 -0.456055 46.3565 1.43788 -11.9238 -3.85855 -1.36467 5.68677 -11.9586 19.4687 -71.6139 79.2096 68.3344 29.5815 -0.311384 -34.5349 
-50.4906 89.6602 1.52612 -7.89854 -5.4272 -67.9401 8.89861 26.2761 -3.05657 -42.0413 17.5508 -29.3675 -11.527 -1.40648 -56.9832 7.55566 8.28146 -24.0581 -1.63339 -5.53491 -0.479272 44.4042 21.368 32.2521 0.965608 2.18072 25.7406 -5.01528 1.52874 20.9972 7.03006 -33.1125 0.370537 -5.72224 55.3333 6.87219 -8.13177 -5.03593 -2.50351 12.1057 -19.4801 19.2609 -103.555 80.7513 97.0635 24.2868 0.928191 -23.0279 
-50.4186 89.1441 6.18815 -7.45881 -5.30637 -68.7414 7.81258 27.8742 -3.81879 -42.4751 13.0593 -26.6368 -15.0545 -3.13036 -58.1191 4.55563 5.55605 -22.2677 -0.0623718 -6.74414 0.657512 43.8895 22.8468 39.8943 -3.04361 5.84157 24.2705 -7.01907 3.25027 21.4121 1.81734 -34.7653 -0.694096 -0.503877 59.5391 4.31255 -8.62663 -6.93548 -2.77821 17.2739 -25.794 19.5283 -108.138 83.6508 99.4028 17.0962 3.20419 -10.558 
-50.5085 88.6627 10.8148 -6.70149 -4.97151 -69.8503 7.2747 27.3748 -2.95716 -44.0021 11.6052 -24.0252 -16.2838 -4.5072 -62.9148 3.85941 4.59809 -22.3371 0.493464 -5.60901 1.59501 43.4407 24.1946 41.1897 -4.86203 3.68247 31.552 -10.4384 3.83802 25.3364 -2.81794 -36.0251 -1.46513 3.81757 62.2762 2.34229 -8.40407 -8.87864 -2.52985 22.4164 -29.7959 19.3664 -52.9439 84.5134 43.0993 9.8956 2.45151 1.15098 
-50.4867 88.4883 15.4884 -5.66159 -4.43332 -71.6782 6.70541 25.4661 -1.48977 -46.1523 11.3373 -21.3698 -15.5705 -5.28643 -68.2757 3.52421 3.98833 -23.1663 0.197539 -3.98077 2.32277 42.8785 25.326 40.498 -2.6905 -1.30382 40.7361 -10.9841 2.75643 27.6873 -5.63825 -37.5371 -1.13792 4.69 63.7273 2.56611 -7.76375 -8.67321 -2.6091 25.1787 -31.8047 18.5566 -7.54858 78.4603 0.779432 7.95516 -1.56253 6.24506 
-50.9382 88.7565 20.6035 -4.53489 -4.00648 -73.0915 7.24438 23.5177 -1.31666 -48.3828 11.3004 -20.1161 -15.2676 -5.84107 -72.6497 3.77 3.62687 -24.5959 -1.48544 -3.1657 1.89428 41.07 26.664 39.9861 -1.24761 -5.30943 49.9034 -10.3514 1.6037 29.0848 -7.14222 -37.8972 2.02535 2.50464 64.102 5.60196 -3.5334 -9.48931 -2.73598 24.8848 -30.9099 14.8238 4.93723 68.4692 -8.41909 5.41277 -2.88999 5.67454 
-50.7253 89.2468 25.9812 -3.22929 -3.26034 -76.3123 7.7145 21.0916 -0.499995 -50.6422 10.8816 -19.3963 -14.4857 -6.00332 -75.6201 3.40531 2.97992 -25.2322 -3.17705 -2.50051 1.8827 39.1094 29.0536 39.6902 -1.26738 -8.08178 57.5893 -8.54969 0.225695 30.5199 -8.88936 -37.9559 4.17773 1.44784 61.4075 7.23609 -1.96046 -8.98581 -2.23861 24.3478 -28.5626 9.99052 5.1106 59.8921 -7.27024 3.40502 1.37309 4.53006 
-50.0765 89.9011 31.7467 -2.00643 -2.41921 -80.6676 9.0466 17.9897 -0.441321 -53.01 10.7706 -18.3286 -14.1249 -6.06428 -77.5658 3.70607 2.73921 -25.5675 -5.08826 -1.58276 2.01923 36.8592 32.1251 39.3927 -2.466 -9.68003 63.2421 -7.82496 -0.552389 32.3259 -10.2637 -37.555 6.93446 -0.395524 56.3885 9.73953 0.673932 -7.60737 -0.898472 22.5306 -25.8696 5.48781 4.94249 54.6048 -6.12314 3.98225 4.05865 3.64071 
-48.9779 90.6284 37.7985 -0.904654 -1.72917 -84.9845 11.1192 14.8625 -1.23967 -55.436 11.1013 -17.4748 -13.7158 -6.05287 -79.3127 4.583 2.86639 -26.708 -6.122 -1.22619 1.60158 34.8785 34.1537 37.9015 -4.87094 -10.6573 68.0199 -8.03832 -0.812051 33.7177 -11.8046 -36.5228 9.83989 -1.78751 49.1738 11.3873 3.70183 -4.64835 -0.208682 19.9752 -23.9329 2.34339 4.38881 53.5831 -6.43741 1.27933 0.127448 2.40429 
-47.3068 91.7006 43.8613 -0.96643 -1.41675 -87.6863 14.5522 15.2265 -2.95666 -57.1166 10.9921 -20.3539 -12.8743 -5.90819 -81.4981 5.18624 2.89807 -27.6243 -6.96561 -3.26935 -1.68835 32.6536 31.4936 35.7174 -6.74539 -11.2036 71.5507 -8.41663 -1.0087 35.2769 -13.9246 -33.3085 12.0622 -2.30266 39.7673 11.1715 5.6779 1.44476 -2.1582 17.3247 -22.5904 3.39537 2.49837 52.9521 -4.89163 0.133195 -3.53827 3.78804 
-44.7361 92.4841 49.4938 -0.538163 -1.10565 -91.5861 17.0849 14.4197 -2.92964 -57.3335 11.6298 -22.4638 -11.986 -5.71695 -84.448 5.64914 2.97104 -28.3954 -6.68387 -4.12003 -6.32816 30.4462 28.4158 32.6443 -6.67123 -11.4867 73.8034 -7.84073 -1.36374 35.583 -16.3413 -31.3548 8.00183 -0.233035 28.1228 7.48033 2.49507 12.3147 -6.28751 16.0048 -22.1992 7.35283 -1.2625 51.9604 -1.0657 2.28546 -7.19583 5.8673 
-42.6417 93.6443 54.3846 -0.70923 -0.983196 -93.9626 19.1335 14.5375 -3.14556 -55.4971 12.9098 -24.8825 -12.0235 -5.68697 -87.4704 6.15283 3.30855 -29.062 -6.01885 -4.47348 -12.8347 28.7193 24.287 29.6583 -6.09822 -11.4674 73.6707 -7.26135 -1.43811 34.9453 -16.2991 -28.6787 3.81038 1.02419 22.1387 3.97909 2.07506 12.4398 -9.42758 12.6566 -20.6853 8.86034 -0.958206 48.5219 -0.402741 3.54577 -9.38824 7.19461 
-40.42 95.3829 58.6589 -0.556447 -0.915801 -95.9864 19.4673 14.794 -3.46172 -52.7795 13.9836 -25.3012 -12.6139 -5.85098 -90.3287 6.28427 3.64194 -29.1176 -4.28232 -5.02486 -18.411 28.7106 21.5359 27.9063 -5.94664 -11.1506 71.5014 -6.28031 -1.51792 34.199 -15.6234 -28.1348 1.71032 4.90967 24.2741 4.19123 3.14934 7.78297 -3.91693 8.21533 -20.4054 8.73643 1.9516 44.5212 -1.24142 3.41101 -7.05389 8.6814 
-37.9725 97.8079 62.2885 0.0218028 -0.909655 -98.2914 19.2974 15.2011 -3.57896 -50.6559 15.7198 -23.7773 -13.4193 -6.36258 -92.286 7.09904 4.64824 -29.1505 -2.97607 -5.76188 -23.1813 28.5268 21.1433 27.2339 -4.2844 -10.9478 69.8854 -5.53878 -1.71023 33.7914 -12.7715 -28.4034 0.843003 8.57844 28.9913 3.42173 4.29162 5.9386 -2.53325 6.3305 -19.7765 9.95556 0.948502 38.4983 0.0662735 2.91382 -1.42635 8.72355 
-35.2721 100.441 65.5856 1.23388 -1.0403 -100.155 19.4474 14.9426 -3.96912 -50.2113 18.3299 -20.84 -14.3657 -7.12759 -93.5134 7.59866 5.55787 -29.4196 -2.70809 -6.82144 -26.651 26.6461 23.3554 27.0057 -2.96112 -11.0651 70.9266 -5.20716 -1.81216 33.9344 -9.81018 -28.1713 -0.25944 13.2923 33.0819 -0.00251257 6.31659 4.70148 -5.87547 6.43348 -19.2928 11.5443 -1.43716 31.3737 0.278172 -0.475994 6.33952 6.4151 
-32.4776 102.779 68.7919 2.65775 -1.27208 -101.041 20.3109 14.1625 -5.02933 -51.9716 21.2005 -17.2871 -14.779 -7.90116 -94.1941 8.73215 6.70574 -30.6513 -3.34299 -8.00148 -28.85 23.3251 27.135 26.7378 -2.05523 -11.3803 73.9299 -4.83311 -1.81362 34.0021 -8.06752 -27.1016 -1.70203 19.4835 35.667 -5.44789 8.0167 3.34663 -10.4299 7.8321 -19.0412 12.1844 -3.44555 24.787 -2.30969 -10.3093 13.6119 2.09063 
-29.8208 104.352 71.9269 3.90336 -1.51975 -101.667 21.1175 13.5721 -6.19274 -54.6995 22.8972 -14.2996 -14.5481 -8.3983 -94.3472 9.57183 7.5187 -31.7366 -3.78274 -9.18943 -30.1112 19.7197 31.2615 26.1757 -0.309481 -11.9024 78.2175 -3.58517 -2.0879 34.0522 -6.47174 -26.0538 -2.29165 24.386 37.1661 -9.91608 5.9603 7.04946 -11.0306 10.1211 -18.2021 10.4762 -4.71353 20.1639 -6.40196 -14.9769 14.9697 -6.58191 
